<svg id="Layer_1" data-name="Layer 1" xmlns="http://www.w3.org/2000/svg" viewBox="0 0 3620.68 4429.53"><defs><style>.cls-1{fill:#063;}</style></defs><path class="cls-1" d="M1549.06,2721c-1.06-4.49-1.74-8.24-2.83-11.87-3.65-12.09-7.44-24.14-11.19-36.2-6-19.36-6.9-39.26-6.32-59.33,1.32-45.39,21.56-80.52,58.73-105.62A152.36,152.36,0,0,1,1660,2482c22.6-2.11,45.09-4,67.73-3.31,29.53.85,58.16,6.39,85.25,18.66,34,15.42,56.85,41,69.06,76.19,8.21,23.62,10.49,47.94,8.45,72.82-1.57,19.26-2.88,38.48-8.35,57.21-2.2,7.54,1,11.05,9.22,11.33q20,.71,40,.73c9.15,0,12.18-2.56,12.55-11.61.85-20.64,1.23-41.3,1.76-62q1.77-68.94,3.51-137.88a93.71,93.71,0,0,1,1-13.93,16.76,16.76,0,0,1,8.94-12.56c13.66-7,27.53-9.4,42.19-2.76,13.32,6,20.31,14.56,20.06,30.65-.88,58-.35,116-.33,174,0,5.33-.3,10.74.45,16,2.15,15,12.36,23.1,27.65,22.88,12.64-.18,25.29,0,37.93,0,5.91,0,11.82,0,18.46,0,1.29-4.76,3.13-8.42,3.14-12.09a398.61,398.61,0,0,1,12.23-94.87c13.32-53.69,36.14-102.79,71.31-145.86,49.83-61,114.73-98.18,189.52-119.68,13.44-3.86,26.84-8.11,41-8.52,9.93-.29,19.92-.59,29.8.17,17.89,1.38,35.77,1.77,53.63,5.12,133.73,25.11,228.13,100.48,286.1,222.61,13.68,28.82,25.28,58.52,29.52,93.31,3-5,5.36-7.52,6.06-10.45,5.9-24.56,12-49.1,17-73.85,4.24-20.85,7.16-42,10.63-63,.43-2.63.78-5.28,1-7.94,4.47-54.51,6.43-109.11,3.51-163.74a1094.22,1094.22,0,0,0-11-109.29c-6.09-39.42-12.75-78.75-23.48-117.27-1.42-5.07-1.61-10.5-2-15.79-.08-.91,1.26-2.35,2.28-2.82s2.93-.6,3.67,0a37.74,37.74,0,0,1,6.75,7.09c39.06,57.53,71.52,118.49,96.44,183.5,21,54.85,37.24,111,46.94,168.92,5.5,32.82,8.83,65.94,11.22,99.22,3.36,46.76,1.53,93.37-2.83,139.76a845.31,845.31,0,0,1-22.49,129.81,1077.58,1077.58,0,0,1-75.34,205.8c-42.14,86.56-93.77,167.26-152.85,243.24-38.49,49.5-79.32,97-123.18,141.81-18.12,18.5-38.4,35.06-58.77,51.13a1262.77,1262.77,0,0,1-192.54,125,1279.5,1279.5,0,0,1-209.61,88,1245.62,1245.62,0,0,1-139.27,35.36c-18.93,3.7-38.24,5.42-57.25,8.72-36.8,6.4-74.19,6.51-111.18,10.86-11.13,1.31-22.6-.52-33.91-.47-15.32.06-30.65,1.11-46,.67s-30.47-2.16-45.69-3.4c-3.31-.27-6.58-1.12-9.89-1.3-65.39-3.58-129.67-14.88-193-30.83-39.3-9.9-78.08-22.32-116.38-35.65-130.44-45.4-250.75-110.55-364.12-189-19.9-13.78-36.44-31.16-53.2-48.28A1427.74,1427.74,0,0,1,779.57,3161c-47.87-79.57-87.32-163.07-115.64-251.68a1023.42,1023.42,0,0,1-30.25-117.85c-10.33-53.64-15.89-108-18.25-162.63-.61-13.93.34-28,1.4-41.93,3.09-40.49,7.25-80.79,14.13-120.94,20.28-118.36,64.07-227.63,124.42-330.76,57.52-98.32,127.85-186.8,207.19-268.29,11.63-11.94,23.06-24.07,34.8-35.89,3.63-3.66,8-6.6,11.77-9.68,5.7,4.2,3,7.63,1,10.92-11.4,18.79-23.57,37.16-34.17,56.39-42.59,77.33-75.68,158.49-96.28,244.49-6.5,27.17-14.06,54.28-17.74,81.87-3.76,28.3-9.59,56.48-9.2,85.35.53,38.64-.14,77.3.28,115.94.14,12.61,1.77,25.25,3.27,37.8a812,812,0,0,0,17.43,98.2c11.44,46.58,25.95,92.23,44.51,136.51,1.48,3.52,3.92,6.63,6.94,11.63,2.4-3.38,4.59-5.12,4.87-7.12.91-6.58,1.06-13.26,1.63-19.9,4.44-51.95,19.88-100.44,47.48-144.66,30.78-49.33,74.12-83.08,129.61-101a156.81,156.81,0,0,1,49-8.11c18,0,35.92-2.94,53.84-2.57,19.75.41,40.06-.19,57.87,11.39,6.69,4.35,14.25,7.39,20.74,12,22.28,15.79,44.3,32,66.34,48.1,8.16,6,15.34,12.46,16.87,23.64.58,4.21,4.17,8.2,6.94,11.88,29.21,38.84,48.6,82.5,62.29,128.76,4.52,15.26,6.7,31.21,9.88,46.86,1.59,7.8,3,15.63,4.32,22.51,2.07,1.56,3.12,3,4.17,3,13.85-.07,27.72-.15,41.57-.61,12.64-.43,25.27-1.26,37.9-2.05C1543,2722.39,1545.42,2721.65,1549.06,2721Zm1226.37,58.34c-6.88-5.94-13.18-4.2-18.91-4.33-17.3-.4-34.6-.18-51.91-.29-63.92-.4-127.86-.46-191.71-4.18a56.07,56.07,0,0,0-8,0c-33.93,2.75-67.74-2.34-101.76-1.09-25.13.92-50.5-1.54-75.85-1.59-43.28-.09-86.56-2.29-129.85-3.54-5.23-.16-10.78-1.43-15.87,4.16a105.75,105.75,0,0,0-1.11,10.62c-.38,24-.35,48-.94,72s-1.59,47.95-2.76,71.91c-.47,9.83-5.32,14.53-15,15.08-8.65.49-17.32.54-26,.48-20-.14-23.43-3.36-23.49-23.08-.14-38.67,0-77.33,0-116,0-5.33.15-10.68-.15-16-.43-7.42-4-10.83-11.44-10.74-9.31.11-18.63,1.06-27.92.78-17.32-.5-34.61-2.05-51.93-2.4-20.64-.41-41.3.35-62,0-32.64-.64-65.27-1.9-97.9-2.73-9.33-.24-18.67-.12-28,.19-13.29.44-26.58,1.72-39.87,1.73-40,0-80-.26-120-.65-25.95-.25-52,2.76-77.87-1.27-2.58-.41-5.31.16-8,.25-22,.71-44,1-65.9,2.24-18.52,1.06-37,3.23-55.6,4.93-6.4,14.61-4.75,29.41-5.27,43.84-.72,20-.37,40-1.06,60-2,57.92-4.33,115.82-6.5,173.74-.55,14.65-.91,29.32-1.54,44-.35,8.07-4.09,14.2-12.08,16.53-10.19,3-20.43,6.11-30.88,7.72-12.69,2-25.1-6.55-25-21.84,0-4.67-.14-9.33-.14-14,0-34.66.12-69.33-.1-104q-.57-91-1.55-182c0-5.2,1-10.8-3.64-14.84-18.11-2.93-315-4.33-403.67-1.83-1.73,0-3.42,1.2-6,2.16.62,2.88.63,5.62,1.78,7.76,3.46,6.45,7.29,12.71,11.11,19a1133.21,1133.21,0,0,0,106.55,147.22c32.56,37.94,65.76,75.44,103.1,108.82,85.33,76.28,181.76,134.59,288.55,175.71,58,22.32,117.64,38,178.9,48.61a940.11,940.11,0,0,0,145,13.18c38,.61,75.82-1.64,113.67-5.46,46.49-4.7,92.23-13.15,137.71-23.42,90.06-20.34,175.84-52.84,259.3-91.77,50.14-23.38,98.12-50.84,146.59-77.43A755.63,755.63,0,0,0,2617,2993.83c63.13-59.62,114.29-128.11,154.68-204.81C2773.23,2786.15,2774.07,2782.94,2775.43,2779.31Zm-302.3-68.81v.6c27.3,0,54.61.25,81.91-.06,38-.42,75.9-1.36,113.86-1.85,11.3-.15,22.61.51,33.92.71,13.31.23,26.63.68,39.94.45,11.92-.2,14.51-3.37,12.27-14.4-8.91-43.89-22.28-86.34-43.5-125.9-20-37.36-46-70.17-79.27-96.71-37.14-29.64-79.53-47.61-126.22-56.38-71.51-13.43-136.1,2.57-194.42,44.83-35.12,25.46-61.1,59.19-81.79,97-20.56,37.55-34.82,77.55-44.43,119.24-1.82,7.92-2.46,15.79.1,23.65,2.88,8.81,6.41,11.77,16.09,11.83,14,.08,28-.52,41.93-.7,10-.13,19.95-.18,29.93,0,8.64.15,17.29,1.06,25.92.92Q2386.26,2712.25,2473.13,2710.5ZM1371,2715.1c.44-5.25,1.17-7.87.79-10.33-2.81-18.39-5.07-36.92-9-55.09-6.44-30.07-16.56-58.93-33.24-85-23.42-36.66-54-62.94-98-72.82-80.25-18-162.65,18.49-201,91.39-19.63,37.32-27.45,77.49-25.64,119.54.1,2.39,1.94,4.71,3.41,8.07,10,.13,20,.31,29.92.36,9.32,0,18.63,0,27.94-.07,29.91-.18,59.75,5.19,89.71,1,1.94-.27,4,.27,6,.35,16.62.69,33.23,1.67,49.86,2q56.91,1,113.83,1.42C1340.08,2716,1354.6,2715.4,1371,2715.1Zm352.86-18.85c10.35,1,20.7-1.48,30.59-5.69,48.86-20.83,58-84,16.39-115.83-27.67-21.2-62.77-22.37-91.6-3-41.86,28.13-38.61,81.14-5.86,107.65C1687.8,2691,1704.38,2697.39,1723.87,2696.25Z"/><path class="cls-1" d="M255,1694c-4.21-4.87-2.28-9.16,0-13.31,9.71-17.45,19-35.12,29.33-52.21q28.33-47.09,57.65-93.57c30.62-48.6,55.82-99.93,78.29-152.69,16.43-38.58,31.87-77.54,45.61-117.16.85-2.47,1.56-5,2.81-9-4,0-7.34-1-9.77.15-18.49,8.44-38.57,10.3-58.14,13.74-26.44,4.65-48.65-4.72-65.69-25.19a139.91,139.91,0,0,1-31.2-68.09,222.52,222.52,0,0,1-1-63.49c7.79-65.07,31.39-125,59-183.48,24.44-51.83,51.91-102.14,83.27-150.17,9.43-14.44,20.36-28,31.33-41.33,6-7.31,11.62-8.48,15.23-5.28,5.27,4.67,1.88,9.85.44,14.76-3.35,11.49-6.75,23-10.41,34.36-5.89,18.33-5.81,36.74-1.08,55.21,16.68,65.08,33.79,130,50,195.24,8.37,33.58,15.33,67.51,18.14,102.15.86,10.54,3,21,4.64,32.51,4.49.79,8.9,2.27,13.28,2.22,20.65-.26,41.28-1.27,61.92-1.39,27.32-.16,54.65.3,82,.36,1.75,0,3.5-1.09,5-1.6,1.51-4.69-1.76-6.51-4.09-8.55-12.06-10.51-24-21.15-36.39-31.28-20.86-17.09-33.46-39.65-42.08-64.44-11.25-32.36-15-66.06-15.57-100.21-.24-15.62,3.95-30.48,8.63-44.92C638.75,878.73,652,840.4,670.46,804q42.09-82.92,91.29-161.78c6.32-10.18,12.17-20.65,18.33-30.93,2.35-3.92,2.47-3.84,12.33-6.26-.62,5.6-.93,10.79-1.79,15.88-1.9,11.15-4.19,22.24-6.1,33.38-3.86,22.47,3.64,43.59,8.4,64.92,10.41,46.72,21.58,93.27,32.33,139.92,7.93,34.38,15.58,68.82,23.55,103.19q21.84,94.27,44,188.5c1.19,5.08,3,10,4.34,14.43,19.25,4.85,61.48,5.83,82.15,2.13,3.75-5.11,1-10.12-.36-15.13-5.68-20.52-11.65-41-17-61.55-8.13-31.24-6.36-61.46,6.25-91.82,13.15-31.68,31.15-60.26,49.82-88.64,1.09-1.65,2.33-3.58,4-4.38a12.34,12.34,0,0,1,7.11-1.25c1.12.2,2.2,3.06,2.45,4.84s-.38,3.91-.81,5.84c-3.23,14.56-2.29,29,.15,43.61,5.07,30.3,12.2,60,24.66,88.15a81.1,81.1,0,0,0,4.58,8.83c.61,1,2,1.56,3.78,2.91,1.69-1.63,3.94-3.09,5.22-5.15,44-71.19,98-134.56,153.38-196.88q12-13.44,24.5-26.35c9.44-9.7,20.81-16.37,33.53-21.08,14.74-5.44,28.71-4.35,42.34,3.23,10.62,5.91,19.52,13.83,27.47,22.95,19.08,21.88,32.09,47.35,43.26,73.81,14.51,34.36,25.6,69.92,35.77,105.79,12.53,44.2,22.59,89,31.57,134,1.14,5.74,3.18,11.31,4.91,17.33a188.73,188.73,0,0,0,49,.17c.77-4.35,1.74-8.1,2-11.9.34-4.64.11-9.33.11-14q0-327,0-653.92c0-8-.42-16-.22-24,.44-17.93-5.33-34-14-49.31-5.6-9.84-10.9-19.85-16.61-29.62-4.13-7.06-3.84-13.47.26-20.6,12.27-21.37,24.13-43,36-64.54q24.65-44.6,49.08-89.29c3.16-5.81,5.72-11.84,14.45-13.27.91,2.82,2.31,5.15,2.31,7.49q-.17,513.92-.57,1027.85c0,7.32.06,14.68-.64,22-.57,6-4.43,9.44-10.52,10.13a125.11,125.11,0,0,1-14,.53q-229,.09-457.94.22c-19.39,0-36.77-5.12-52.44-16.3-8.71-6.21-10-11.41-4.8-20.32q19.77-33.55,40-66.88c4.57-7.55,9.77-9.06,16.32-3.21,10.83,9.67,23.46,11.8,37.09,11.79q93,0,185.95,0c2,0,4,0,6-.12,9.29-.67,11.55-3.39,10.17-12.73-8.14-55.1-24.59-107.57-50.81-156.79a164.21,164.21,0,0,0-18-26.31,89.65,89.65,0,0,0-17.59-16.14c-18.58-13.12-29.18-12.42-46.37,2.38a110.16,110.16,0,0,0-14.16,14.08c-20,24.93-41,49.19-59.25,75.39-33.07,47.58-64.39,96.38-96.49,144.64-6.27,9.43-12.28,19.09-19.31,27.94a214.07,214.07,0,0,1-22.9,25,65.44,65.44,0,0,1-45.55,17.47c-16.66,0-33.33,0-50,0q-173,0-346-.1c-31.76-.06-26.43,2.66-34.88,23.14-19.13,46.35-43.62,89.87-69.53,132.56-47.76,78.66-101.13,153.54-155.32,227.85-8.24,11.3-16.5,22.61-25.09,33.64C267.2,1687,263,1693.26,255,1694ZM392.26,949.55c-3.41,4.1-5.28,5.42-5.84,7.16-11.66,36.12-15.71,72.46-6.13,110,9.93,38.92,35.44,62.34,72.45,78-.25-4.46.09-7.74-.69-10.72C436,1072.31,414.4,1012.43,392.26,949.55Zm384.46,72.58a67.88,67.88,0,0,0-.09-10.59c-2-17-7.63-32.13-22.82-42.1-7.54-5-13-5-19.84.5a36.79,36.79,0,0,0-13,21.72c-1.73,8.42-2.92,17-4.57,25.39-3,15.49.26,30.33,5,44.86a26.53,26.53,0,0,0,7.88,11.15c15.17,12.94,27.94,15.65,39.16-7.17C774.65,1053.35,777.39,1039.61,776.72,1022.13Z"/><path class="cls-1" d="M3387.33,947.73c-12.47,3.56-22,12-30.47,21.41-24.43,27.35-47.92,55.49-68.25,86.09q-45.92,69.07-91.58,138.31c-7,10.55-14,21.12-21.58,31.24-10.49,14-22.75,26-38.89,33.67-10.58,5-21.66,5.9-33.13,5.89q-156-.19-311.94-.12-38,0-76,0c-4.67,0-9.34,0-14,.25-6.48.39-11,3.15-13.63,9.7-4.9,12.37-10.38,24.52-15.84,36.66-16.68,37.13-37.05,72.24-58,107.07-38.49,64-81.27,125.12-124.68,185.82q-25.57,35.76-51.71,71.14c-5.42,7.36-10.38,15.43-19.09,19.1-6.54-2.72-6.41-7.21-4-11.73,6.58-12.34,13.07-24.75,20.33-36.69,22.16-36.42,44.31-72.84,67.11-108.85,23.94-37.79,44-77.58,63-117.94,23.63-50,43-101.74,62-153.6,1.13-3.08,2.61-6.16,0-9.15-1.35-.33-2.82-1.24-3.74-.84-19.14,8.32-39.78,10.53-59.94,14.61-23.35,4.72-43.85-2.43-60.74-18.12-17.42-16.19-27.87-37-34.28-59.92-8.43-30.17-7.63-60.3-2.67-91,9.32-57.77,29.45-111.81,54.26-164.32,25.9-54.83,54.57-108.2,87.81-159,6.92-10.58,14.54-20.71,22.17-30.8a96.8,96.8,0,0,1,11-11.59c2.94-2.78,6.36-4.94,10.74-2.84,3.72,1.78,4.76,5.58,2.82,12.24-3.34,11.5-6.91,22.94-10.41,34.4-6.41,21-5.88,42.12-.7,63.07,12.93,52.33,26.4,104.53,39.53,156.8,5,20,9.33,40.12,14.63,60,8.45,31.7,11.73,64.12,14.81,96.61.3,3.26.73,6.51,1.22,10.83,4.62,1.15,8.94,3.14,13.25,3.12,15.3-.09,30.6-1.23,45.91-1.32,32-.18,64,.08,96,.09,3.08,0,6.16-.47,9.07-.71.71-6.1-3.29-7.87-6.05-10.28-12.55-11-25.1-21.91-37.86-32.61-18.46-15.48-30.11-35.43-37.84-57.78-9-25.89-14.84-52.33-15.59-80-.49-18-2.57-35.95,2.59-53.51C2788.6,914,2794.66,895,2800.9,876c11.49-34.91,28.29-67.48,45-100.07,28.84-56.39,62.67-109.9,95.37-164.07,1-1.69,2.1-3.59,3.67-4.62a8.84,8.84,0,0,1,5.37-1,3.65,3.65,0,0,1,2.26,2.79,119.5,119.5,0,0,1-1.11,15.83c-1.58,9.83-3.9,19.55-5.46,29.39a96.49,96.49,0,0,0,1.83,37.66q19.69,83.54,38.87,167.2c10.26,44.72,20,89.56,30.31,134.28,10.12,44.1,20.6,88.11,30.85,132.18,1.81,7.77,3.07,15.68,5,23.43,1.39,5.69,3.41,11.24,5.26,17.2,26.51,5,52.07,3.15,76.58,2.76,4.49-8.28,1.79-13.85.14-19.51-5.39-18.52-11.09-37-16.06-55.58-7.76-29.09-7.21-57.76,3.86-86.27,7-18.07,14.6-35.73,24.78-52.22q12.58-20.4,25.43-40.65c2.78-4.36,5.35-9.27,11.34-10,4.06,1.54,4.75,5,3.93,8.23-7,27.59-1.16,53.93,6.26,80.5,5.37,19.24,10.72,38.39,18.63,56.75,1.54,3.59,3.7,6.91,6.42,11.9,3.41-3.58,6.55-5.88,8.4-8.95,30.06-49.79,65.54-95.6,102.81-140.06,21.4-25.52,43.63-50.36,65.72-75.3a100.06,100.06,0,0,1,40.61-28.17c15.56-5.78,30-4.47,44.07,3.77a101.55,101.55,0,0,1,25.9,21.74c18.48,21.47,31.57,46.14,42.32,72.07,22.21,53.58,39.06,108.89,51.56,165.51,6,27.3,11.68,54.67,17.42,82,1,4.54,2.06,9.17,2.11,13.77.3,27.33.47,54.66.34,82-.05,10.3-3,13.08-12.91,13.7-4,.25-8,0-12,0-112.65,0-225.3-.21-337.94.27a78.92,78.92,0,0,1-43.41-12.2,53.25,53.25,0,0,1-8-5.9c-6.39-5.84-7-10-2.92-17.58,1.26-2.34,2.79-4.54,4.16-6.82q16.44-27.4,32.86-54.83c1.71-2.85,3.19-5.87,5.12-8.56,3.08-4.31,8.56-6,12.14-2.56,13.91,13.32,31,13.55,48.59,13.5,56.65-.18,113.31-.07,170-.07,1.34,0,2.67,0,4,0,20.37-.19,20.3-.18,17.24-19.93-7.27-47-20.71-92.18-41.49-134.93-6.65-13.68-15.3-26.51-24.12-39C3421.16,960.49,3406.66,950.28,3387.33,947.73Zm-773.87,195.45c.17-1.55.88-3.52.47-5.2-15.22-62.59-37.52-122.9-59.25-183.39-.34-1-2.1-1.38-4-2.57-1.28,2-3,3.9-3.79,6.11a185.67,185.67,0,0,0-9.14,92.22c3.85,25.82,12.45,50.33,33.32,68.42,12.08,10.49,26.07,17.83,40,25.26C2611.47,1144.23,2612.27,1143.63,2613.46,1143.18ZM2937.79,1029c-.65-10.12-.55-17.5-1.71-24.69-1.72-10.63-5.46-20.54-13.32-28.44-14.88-14.95-28.56-12.61-37.37,6.49a22.47,22.47,0,0,0-1.19,3.81c-2.18,8.37-5.22,16.63-6.3,25.14-2.08,16.55-2.46,33.09,4.18,49.14a35.24,35.24,0,0,0,16.89,18.75c11,5.75,18.7,4.58,26-5.52a48,48,0,0,0,7.75-16C2935.24,1047.45,2936.46,1036.86,2937.79,1029Z"/><path class="cls-1" d="M2508.1,3805c3.43-3.06,5.6-5.58,8.29-7.29,41-26,82-51.94,122.27-77.41,8,2.4,8.59,7.66,8.61,13.11q.09,26,0,52-.06,210-.09,419.93c0,6.7.54,13.41-4.36,19.24-6.46,4.17-14,2.57-21.19,2.61q-70,.38-140,.42-254,.06-507.92.27c-16.31,0-31.45-4.88-47.21-7-2.08-.28-5.33-3.19-5.35-4.9,0-2.84,1.8-5.93,3.5-8.48,1-1.51,3.22-2.26,5-3.27,14.36-8.4,29-16.4,43-25.31,7.37-4.68,14.66-6.42,22.71-3.59,16,5.66,32.81,5.94,49.37,6,85.32.37,170.64.22,256,.14,5.11,0,10.23-1,16.78-1.68-.74-4.37-.38-7.95-1.88-10.39-34.41-55.85-82.15-90-149.89-90.59-6.5-.06-13.17,1.59-19.51,3.37-38,10.66-73.59,27.32-108.45,45.44q-68.24,35.47-135.85,72.12c-23.08,12.46-47.18,21.62-73.05,25.87a139.21,139.21,0,0,1-21.87,1.74c-34,.14-68,0-102,0q-231,.12-461.93.15c-9.72,0-18.14,1.37-25.76,8.12-30.62,27.1-65.68,47.74-101,67.93-67.08,38.41-136.6,72.1-206.2,105.62-12.58,6.06-25.3,11.84-38,17.59a32.29,32.29,0,0,1-9.47,2.83c-1.54.18-4-1.27-4.78-2.68s-.73-4.59.24-5.35A154.14,154.14,0,0,1,876,4408.92c31.76-18.23,63.44-36.65,95.6-54.15,60.78-33.08,114.29-75.7,164.16-123.24,1.73-1.65,2.73-4.06,5.29-8-5.16-.14-8.36-.92-11.17-.18-20.85,5.45-42.41,3.77-63.53,6.42-7.91,1-15.92,1.18-23.88,1.74a40.22,40.22,0,0,1-6,.46c-29.25-2.27-58.52-4.62-85.07-18.89a84.19,84.19,0,0,1-14.93-9.92c-16-13.71-24.36-31.29-12.28-55.11,9.21-18.16,21.77-33.39,36.67-46.93,32.2-29.25,67.93-53.7,104.9-76.35,17.6-10.78,35.47-21.17,53.7-30.84,12.3-6.52,25.35-11.68,38.25-17,3.53-1.46,7.72-1.59,11.63-1.78,3.31-.16,6,4.31,4.36,7.23a92.07,92.07,0,0,1-7.84,11.39c-13.14,16.46-13.38,21.17-1.21,38.78,4.16,6,8.52,11.93,12.85,17.84,14.58,19.88,29.09,39.82,43.83,59.58,13.63,18.27,25.19,37.52,31.48,59.71,3,10.53,4.59,11.68,15.53,11.61,16-.12,31.91-1,47.87-1.6,4.66-.17,9.32-.58,14-.56q63,.16,126,.43c3.07,0,6.15-.5,9.27-.78-.44-5.45-4.26-5.76-7.17-6.59-17.24-4.95-34.74-9.09-51.77-14.66a112.27,112.27,0,0,1-39.58-22.84c-10.71-9.49-17.37-21.55-22-35.1-4.37-12.68-2.25-23.4,6.11-33.51a291.53,291.53,0,0,1,50.46-48.19c43.35-32.38,90.08-59.32,136.87-86.21,8.66-5,17.27-10,25.92-15,3.67-2.11,7.35-3.32,11.78,1.7-2.39,5.29-4.66,11.38-7.79,17-4.42,7.93-3.68,14.7,1.43,22.27,20.49,30.37,40.53,61,60.7,91.62q36.88,55.89,73.72,111.79c2.56,3.89,5.11,7.8,7.92,11.51a15.6,15.6,0,0,0,11.75,6.59c33.24,2.63,66.53,2.75,99.84,2.06,2.41,0,4.8-1.54,8.76-2.9-4.61-5.56-8.66-9.86-12-14.63q-10.3-14.62-20-29.7c-3.71-5.76-2.64-11.78,1.46-16.74a136.8,136.8,0,0,1,15.21-15.8c21.29-18.61,46.36-31.1,71.59-43.25,1.58-.76,3.85-.1,6.69-.1.5,2.56,1.74,5.16,1.32,7.46-1.78,9.86,1.52,18.22,6.26,26.55,8.43,14.78,20.38,26.23,33.4,36.76,3.39,2.74,7.29,3,11.25,1.28,1.82-.8,3.51-1.89,5.25-2.86a962.71,962.71,0,0,1,111.61-53.49c41.32-16.71,82.43-34,124.2-49.53A192,192,0,0,1,2279,4013.2a194.49,194.49,0,0,1,85.53,31c43.17,28.52,74.91,67.64,102.1,110.9,3.9,6.2,7.55,12.56,11.44,18.76a42.7,42.7,0,0,0,4.1,4.74h68.65c.84-4.33,2.18-8.06,2.19-11.79.09-102.65-.09-205.3.19-307.95,0-14.16-5.31-24.3-17-31.63-6.21-3.89-12.6-7.55-18.44-11.94C2514.27,3812.71,2511.7,3808.91,2508.1,3805ZM1120.83,4169.7c-13.2-23.53-60.64-74.71-83-90.27-3.61,3.17-8.12,6.05-11.2,10-14.33,18.55-12.33,34.21,1.6,47.94a66,66,0,0,0,17.5,12.8C1068.62,4161,1093.14,4165.86,1120.83,4169.7Zm395.42-29.12c10.63-.61,20.1-2.35,28.35-9.2,17.8-14.81,14.53-28.19-3.45-39.43-1.65-1-3.71-1.39-5.57-2.08-10.19-3.82-20.74-4.52-31.42-3.41-13.71,1.43-23.15,8.54-28.92,21.25-2.89,6.38-2.29,11.82,2,16.54,3.5,3.83,7.61,8,12.28,9.66C1498.13,4137,1507.32,4138.45,1516.25,4140.58Z"/><path class="cls-1" d="M1581.53,2450.3c-1.56-5-3.32-8.65-3.75-12.45-.6-5.26-.22-10.64-.22-16q-.06-213-.2-426c0-24.81,12.91-41.27,32.68-53.4a59.47,59.47,0,0,1,34.33-9c2.66.12,5.34-.08,8,0,22.38.78,20.46-5.22,20.38-22.2,0-5.82-2.43-10.17-7.6-13s-10.46-5.88-15.58-9c-68.92-42-70.43-137.59-11.52-183.54,23.59-18.4,50.44-26.22,79.23-29.56,6.52-.75,13.44-1,19.63,5.33-1.11,2.4-1.75,5.85-3.81,7.79-3.34,3.16-7.73,5.18-11.47,8-22.2,16.48-34.48,38.94-36.19,66.14-1.39,22.08,6,42.32,21.79,58.15,8.36,8.38,18.42,15.27,28.41,21.75,9,5.85,19.41,8.34,30.39,8.49,18.6.24,37.22,1.22,53.57-7.49,5.86,3.28,5.54,7,3,10.71-8.39,12.2-18.54,23-30.78,31.11-13.83,9.15-28.29,17.66-45.18,20.43a47.88,47.88,0,0,0-7.75,1.89c-8.62,2.94-12.28,14.06-6.46,21,1.85,2.19,5.66,3.58,8.67,3.78,8.63.56,17.34,0,26,.45,29.39,1.62,50.18,16,61.75,43.08A64.75,64.75,0,0,1,1833,1994c.74,5.91.35,12,.35,18q0,191,0,382c0,14,.54,28,.23,42-.26,12-3.51,14.85-16,15.06-12.66.22-25.36-.58-38,.19a18.77,18.77,0,0,1-19.76-18.08c-.16-4-.45-8-.48-12-.08-10.66,0-21.33-.08-32q-1.5-145.93-3.08-291.87c-.24-21.33-.68-42.65-1.07-64-.06-3.32-.24-6.66-.6-10-1-8.79-5.85-15.06-13.89-18-6.79-2.51-14-4.6-21.19-5.12-8.55-.64-17.29.15-25.87,1.11-14.67,1.64-24.7,9.72-28.79,24a70.68,70.68,0,0,0-2.71,19.66c.38,52.64,1.26,105.29,1.65,157.93.39,52,1.26,104,.17,156-.49,23.27-2.52,46.51-1,69.83.65,9.89-4.57,17.3-14,18.83-3.26.53-6.33,2.42-9.58,2.73C1620.14,2452,1601,2450.9,1581.53,2450.3Z"/><path class="cls-1" d="M1719,0c1,7.93,1.7,11.07,1.7,14.2q-.09,551-.18,1101.94c0,36.61-.06,73.28,3.39,109.81a150.9,150.9,0,0,0,13.21,49.92c6.37,13.63,16,24.82,30.45,30.3,12.34,4.69,24.76,3.3,36.85-2.22,13.49-6.17,24.93-15.22,36.45-24.34,5.16-4.08,10.35-14.09,17.88-7.17,6,5.5-1.83,12-5.11,17.28-14.22,22.82-30.74,43.67-54.19,57.77-8.5,5.11-17.31,10.2-26.65,13.33-28,9.38-54.41,1.24-73.26-21.74-14.59-17.78-24.08-38.29-30.6-60.18-9.74-32.7-14.11-66.23-16.85-100.22-5.22-64.59-2.87-129.24-3-193.85q-.6-324-.27-648c0-14-.83-28-.37-42,.68-20.31-3.72-39.8-9.08-59-4.49-16.11-12.53-30.75-22.72-44.17-11.33-14.94-11.2-15.08-1.14-31.4q39.84-64.65,79.7-129.29c3.84-6.24,7-12.91,11.17-18.91C1708.79,8.59,1712.59,6,1719,0Z"/><path class="cls-1" d="M194.76,675.13c6,11.71,6.37,23.42,2.13,36.25-8.6,26-13.44,52.73-12.75,80.44.47,18.95,6,36.76,9.89,54.9,8.47,39.67,17.82,79.16,27.16,118.64,7.5,31.69,15.82,63.19,23.22,94.9,11.78,50.56,22.78,101.29,31,152.58,2.11,13.13,3.38,26.41,4.78,39.65.65,6.25-2.53,10.3-8.73,11.13a106.15,106.15,0,0,1-13.94.59c-44.66,0-89.32-.58-134,.23-31.79.57-56.65-12-76.94-35.46-22.89-26.54-34.52-58.23-41-91.94-3-15.61-4.31-31.64-5.23-47.54-2.65-45.31,7.61-88.58,22.44-130.93,19.23-55,45.63-106.51,77-155.34,25.91-40.33,53.76-79.42,80.86-119C184,679.51,186.6,673.28,194.76,675.13Zm-41.23,396c-.09-14.79-1.17-29.54-9.95-42.06-5.73-8.18-12.76-16.69-24.1-15-10.25,1.5-15.11,10.5-18.32,19.34-8.1,22.34-10.45,45.24-4.77,68.63,3.25,13.4,12.08,21.84,24,27.54a10.73,10.73,0,0,0,11.35-1,40.83,40.83,0,0,0,14-16.51C151.87,1099,152.85,1085.1,153.53,1071.11Z"/><path class="cls-1" d="M2328.54,679.09c1.62,4.38,3.05,6.27,2.77,7.85a231.61,231.61,0,0,1-5.06,23.35c-6.36,22-6.74,44.82-7.55,67.34a178,178,0,0,0,4.83,47.51c11.53,48.55,22.12,97.33,33.34,146,4.79,20.73,10.26,41.31,15.34,62q19.8,80.39,39.52,160.8c4,16.15,8,32.29,11.78,48.47,1.5,6.4,3.78,12.93-.12,19.59-1.66.75-3.47,2.3-5.27,2.3q-224.92.15-449.85,0c-3.21,0-6.41-1.22-10.78-2.1.36-4.21-.07-8.14,1.09-11.53q25.39-74.61,51.16-149.09c.22-.63.35-1.29.62-1.9,1.57-3.69,3-7.82,7.78-8.08,5.08-.28,6.19,4,7.63,7.73,5,13,9.77,26.15,15.16,39a81.81,81.81,0,0,0,8.92,15.56c7.35,10.34,16.91,15.9,30.38,15.81,61.32-.4,122.64-.15,184-.21,3.3,0,7.06.22,9.76-1.24,2.47-1.33,4.21-4.61,5.43-7.4.68-1.57-.33-3.88-.57-5.85-5.65-45.67-16.81-90.15-27.95-134.71q-14.3-57.11-25-115.1c-6.77-37.13.11-72.8,16.92-106.65,20-40.27,46.25-76.25,74.9-110.61C2320.17,685,2323.73,682.94,2328.54,679.09Z"/><path class="cls-1" d="M3007.23,4230.55c.9,7.53-3.35,8.87-6.69,10.7-20.55,11.28-42.49,19-65.26,24.21-26.68,6.14-53.65,9.91-81.14,8.41-21.41-1.18-42.35-4.65-61.86-14.07-38.11-18.4-59-48.48-60.93-91.1-.33-7.32-.15-14.66-.15-22q0-164.88-.08-329.74c0-12.63-1.31-25.25-1.71-37.88-.73-22.89-12.4-38.73-31.58-49.83-5.75-3.32-11.75-6.22-17.42-9.68a5.79,5.79,0,0,1-.46-9.94,34.5,34.5,0,0,1,3.3-2.21q62.49-35.51,125-71a62.36,62.36,0,0,1,7.12-3.58c3.9-1.6,8.76.89,9.1,4.92.46,5.29.42,10.63.42,16q0,246.81.1,493.61c0,15.95,1.36,31.9,2.16,47.85,1.07,21.09,13.27,34.18,31.39,42.53,14.76,6.8,30.67,8.92,46.71,9.17,26.89.41,52.94-4.93,78.34-13.28C2991.29,4231.11,2998.67,4229.07,3007.23,4230.55Z"/><path class="cls-1" d="M886.83,4225.74c-4.18.62-9.24,2-14.29,2-70.58.1-141.16.44-211.74-.21-32.14-.29-63.67-5.83-92.79-20.28-10.62-5.27-20.48-12.35-29.86-19.67-5.65-4.4-10.4-10.39-14.35-16.45-12.14-18.66-15.7-38.2-2.4-57.85,6.68-9.87,13.77-19.66,22-28.29,23.07-24.34,50.46-43.34,79.08-60.46C667,3997.88,713.59,3975.05,760,3952a39.09,39.09,0,0,1,7.5-2.72c4.32-1.13,7.94.67,10.63,3.82a9.32,9.32,0,0,1,.92,11.19c-2.32,4-5.4,7.57-8,11.41-13.38,19.55-13.66,29.29-.51,49.11,24.65,37.16,49.68,74.06,74.28,111.25,14.68,22.2,28.74,44.81,39.65,69.18C887.16,4211.2,890.69,4217.18,886.83,4225.74Zm-209-62.79c19,.13,30.89-5.61,38.71-16.66,6.16-8.68,5.68-15.86-1.54-23.22-12.4-12.65-37.86-18.24-53.86-11.1a45,45,0,0,0-14.5,10.27c-11.86,13-8.22,29,8.18,35.15C663.42,4160.6,672.8,4161.79,677.81,4163Z"/><path class="cls-1" d="M1486.62,1792.8c2.09,6.72-1.26,10.22-4.37,13.61-7.66,8.33-15.37,16.62-23.29,24.69-6.54,6.66-9.44,14-7.43,23.52a277.37,277.37,0,0,1,3.87,27.61,69,69,0,0,1,.14,15.8c-.19,1.54-4,3.78-6,3.67-3.14-.16-6.27-1.88-9.25-3.27-10.24-4.77-20.57-9.39-30.57-14.63-7.15-3.75-13.87-3.77-20.93-.3-6,2.94-12,5.73-18,8.56-7.77,3.66-15.55,7.29-22.31,10.45-6.93-2.55-7.61-7-7-11.89,1.47-11.88,2.61-23.84,4.78-35.59,1.74-9.41-.24-16.79-7.21-23.46-7.69-7.35-14.74-15.38-22-23.17-3.53-3.78-8.87-7.18-6.5-13.34,2.28-6,8.68-5.39,13.69-6.47,9.74-2.09,19.49-4.63,29.36-5.42,10.75-.85,16.88-6.55,21.43-15.39q7.31-14.17,15-28.15a65.49,65.49,0,0,1,5.11-7.11c7.09-1.63,9.75,2.61,12,6.57,5.26,9.25,10.4,18.59,15,28.17,4.4,9.13,10.64,14.53,21.18,15.71s20.9,3.77,31.28,6C1479,1790,1483.13,1791.67,1486.62,1792.8Z"/><path class="cls-1" d="M2158.69,1879.49c-7,3.11-13.67,6-20.29,9-9.07,4.11-18,8.5-27.18,12.39-6.28,2.66-10.85-.58-10.11-7.21,1.54-13.85,3-27.73,5.45-41.44,1.42-8.14-.84-14.08-6.43-19.71-9.36-9.42-18.48-19.08-27.45-28.87-5.1-5.57-3.22-11.58,4.34-13.28,12.94-2.9,26-5.52,39.05-7.64,7.9-1.28,13.5-5,17.22-11.93,5.34-9.94,10.49-20,16.22-29.71,2.21-3.73,5.79-6.66,9.66-11,3.49,3.84,6.61,6.28,8.44,9.47,5.28,9.2,10.16,18.65,15,28.11,4.52,8.9,10.84,14.23,21.41,15.43,12.48,1.42,24.8,4.41,37.12,7.09,7.46,1.62,9.37,7.63,4.23,13.25q-13.44,14.7-27.43,28.9c-5.6,5.67-7.8,11.87-6.37,19.84,1.65,9.15,2.5,18.43,3.64,27.67.49,3.95,1,7.92,1.17,11.89.3,9.26-4.06,12.29-12.27,8.51-9.64-4.44-19.15-9.18-28.78-13.65C2169.92,1884.15,2164.4,1881.94,2158.69,1879.49Z"/><path class="cls-1" d="M2904.25,365.86c-9,17.54-18,35.24-27.08,52.95-4.83,9.47-9.56,19-14.47,28.41a58.3,58.3,0,0,1-5.28,8.39c-2.6,3.43-8,3.46-10.34.2a39.4,39.4,0,0,1-3-5.1c-13.26-25.3-26.36-50.69-39.83-75.89-3.49-6.52-3.44-12.12-.1-18.75,13.75-27.28,27-54.78,40.49-82.21.58-1.19,1-2.46,1.69-3.58,2.07-3.45,7.74-4.28,10.37-1.48a19.66,19.66,0,0,1,3.64,4.69C2874.92,304,2889.41,334.59,2904.25,365.86Z"/><path class="cls-1" d="M742,365.07c-1.71,4.58-2.77,8.4-4.51,11.89Q718.39,415.27,699,453.45c-3.43,6.76-9.29,6.92-13.82.32a95,95,0,0,1-5.83-10.39c-11.59-22.42-22.77-45-34.87-67.18-4.38-8-3.91-14.44,0-22.31,12.81-25.51,24.9-51.38,37.4-77a38.39,38.39,0,0,1,5.6-8.12A6.17,6.17,0,0,1,697.63,270c2.71,5.31,4.92,10.87,7.49,16.25,10.31,21.56,20.73,43.07,31,64.65C738.35,355.58,740.12,360.5,742,365.07Z"/><path class="cls-1" d="M48.9,450.22c1.27-15.49,5.51-34.8,15.06-52.57A56.23,56.23,0,0,1,75,383.7c8.35-7.85,17.91-7.92,27-.93,8.62,6.66,15.42,15.15,18.35,25.44,7.91,27.74,12.55,55.9,1,83.82-3.51,8.45-8.64,16.33-13.86,23.9-2.52,3.65-6.63,6.57-10.62,8.74-6.94,3.77-14.49,3.78-20.29-2-5.58-5.53-11-11.64-14.81-18.45C53.2,489,48.68,472.42,48.9,450.22Z"/><path class="cls-1" d="M128.73,285c-1.77,20-5.54,38.12-15.35,54.36a56.65,56.65,0,0,1-11.6,13.45c-8.65,7.4-15.89,7.19-25.13.09C68,346.21,62.23,337,58.23,327.25c-8.71-21.19-13.34-43.1-6-65.92,3-9.45,5.61-19,9.12-28.3,3.4-9,10.11-15.52,18.31-20.35,6.83-4,14.22-4.62,20.54.39,10.54,8.34,19.75,18.16,22.44,31.9S126.85,272.44,128.73,285Z"/><path class="cls-1" d="M2091.42,590.29c.68-17.9.28-34.75,9.24-49.63,4.07-6.75,8.3-13.69,13.77-19.25,9.17-9.32,20.32-9.15,30.14-.26,10.68,9.67,16.91,22,19.44,36.12,1.52,8.48,2.94,17,3.88,25.57,2.56,23.29-4.06,44.56-15,64.78a27.91,27.91,0,0,1-2.18,3.32c-13.24,17.66-26,18.14-40.44,1.32-10.23-11.92-15.73-26-17.67-41.45C2091.69,603.59,2091.74,596.24,2091.42,590.29Z"/><path class="cls-1" d="M2091.35,774.15c1-16.37.1-32,8.1-45.81,4-6.82,8.32-13.65,13.72-19.32,7.88-8.28,21.58-10.66,32-.1,7,7.14,14,14.08,16.59,24.34,6.82,27.47,10.47,55-.85,82.09-3.54,8.47-7.75,17.07-13.49,24.11-9.37,11.47-24.61,11.08-34.84.1-11.2-12-17.33-26.66-19.78-42.71C2091.57,789,2091.74,781,2091.35,774.15Z"/><path class="cls-1" d="M1506.19,3801.8c-1.48,2.66-2.31,5.3-4,7-2.34,2.3-5.34,3.94-8.11,5.77-14.42,9.57-28.93,19-43.24,28.7-6.24,4.24-12.15,4.69-18.48.48-17.17-11.42-34.49-22.64-51.56-34.22-6-4.08-6.08-10.33.11-14.83q26.63-19.39,53.81-38c4.78-3.28,10.16-2.57,15,.88,16.74,12.06,33.54,24,50.14,36.29C1502.26,3795.73,1503.83,3798.82,1506.19,3801.8Z"/><path class="cls-1" d="M633,3802.27c-15.46-1.26-30.27-4.51-41.86-15.87-12.36-12.12-13.22-23.74-1.87-36.93,14.35-16.69,33.62-20.54,54.37-18,7.11.87,14.09,3.82,20.84,6.54,11.53,4.66,16.89,14.54,19.83,25.88,1.4,5.39-.36,10.37-3.31,15.13-9.25,14.91-23.77,20.56-40,23.21C638.4,3802.63,635.68,3802.27,633,3802.27Z"/><path class="cls-1" d="M633.19,3881.14c-14.73-.47-28-4.31-39.32-13.22-15.34-12-16.45-26.84-3.16-41,20.21-21.62,57.39-23.59,81.75-4.44,6.45,5.06,9.8,12.51,11.86,20.29,1.4,5.33-.18,10.29-3.23,15.08-7.27,11.39-18.45,17-30.63,20.72C644.83,3880.27,638.68,3880.36,633.19,3881.14Z"/><path class="cls-1" d="M1705,2432c-2.14-.59-7.62-1.14-12.12-3.54-11.08-5.91-19.1-14.83-18.84-28.12.23-12,12.72-25.33,24.78-28.13,14-3.26,29.15,2.85,36.18,14.65C1746.51,2406.28,1731.39,2431.66,1705,2432Z"/></svg>